# xmcd CD database file
#
# Track frame offsets:
#	150
#	19402
#	39375
#	52620
#	80602
#	95617
#	111417
#	133962
#	151002
#	168672
#	189252
#	206155
#
# Disc length: 2973 seconds
#
# Revision: 0
# Processed by: cddbd v1.5.1PL0 Copyright (c) Steve Scherf et al.
# Submitted via: CDex 1.50
#
DISCID=9e0b9b0c
DTITLE=Various Artist - Winster Solstice On Ice
DYEAR=1900
DGENRE=New Age
TTITLE0=Schonherz and Scott - Little Drummer Boy
TTITLE1=Tuck and Patti - Christmas Wish
TTITLE2=George Winston - Skating
TTITLE3=Samite - Stars To Share
TTITLE4=Mark Isham - Mr. Moto's Penguin
TTITLE5=Jim Brickman - Bittersweet
TTITLE6=Ensemble - Magic Forest
TTITLE7=Michael O'Domhnaill and Paddy Glackin - Sweeney's Buttermilk
TTITLE8=Nightnoise - Snow Is Lightly Falling
TTITLE9=Yanni - Santorini
TTITLE10=Angels Of Venice - O Holy Night
TTITLE11=Hiroshima - Silent Night
EXTD=
EXTT0=
EXTT1=
EXTT2=
EXTT3=
EXTT4=
EXTT5=
EXTT6=
EXTT7=
EXTT8=
EXTT9=
EXTT10=
EXTT11=
PLAYORDER=
